<svg width="100" height="100" viewBox="0 0 100 100" xmlns="http://www.w3.org/2000/svg">
  <defs>
    <pattern id="snakeScales" x="0" y="0" width="10" height="10" patternUnits="userSpaceOnUse">
      <path d="M0 5 Q5 0, 10 5 Q5 10, 0 5" 
            fill="none" 
            stroke="currentColor" 
            stroke-width="0.5"
            opacity="0.3"/>
    </pattern>
  </defs>

  <path d="M20 80 
           Q25 75, 30 65
           T40 45
           Q45 35, 50 45
           Q55 55, 60 45
           Q65 35, 70 45
           T80 65
           Q85 75, 90 80"
        fill="none"
        stroke="currentColor"
        stroke-width="8"
        stroke-linecap="round"/>
  

  <path d="M20 80 
           Q25 75, 30 65
           T40 45
           Q45 35, 50 45
           Q55 55, 60 45
           Q65 35, 70 45
           T80 65
           Q85 75, 90 80"
        fill="none"
        stroke="url(#snakeScales)"
        stroke-width="8"
        stroke-linecap="round"/>
</svg>