<?xml version="1.0" standalone="no"?>
<!DOCTYPE svg PUBLIC "-//W3C//DTD SVG 20010904//EN"
 "http://www.w3.org/TR/2001/REC-SVG-20010904/DTD/svg10.dtd">
<svg version="1.0" xmlns="http://www.w3.org/2000/svg"
 width="300.000000pt" height="206.000000pt" viewBox="0 0 300.000000 206.000000"
 preserveAspectRatio="xMidYMid meet">
<metadata>
Created by potrace 1.10, written by Peter Selinger 2001-2011
</metadata>
<g transform="translate(0.000000,206.000000) scale(0.100000,-0.100000)"
fill="#000000" stroke="none">
<path d="M1462 1619 c-67 -13 -145 -52 -185 -94 -20 -21 -37 -42 -37 -47 0
-19 -42 -48 -69 -48 -53 0 -298 -49 -345 -70 -64 -27 -139 -100 -167 -163 -20
-44 -24 -68 -24 -157 0 -191 36 -241 221 -300 100 -31 120 -41 122 -59 4 -28
45 -44 93 -36 46 8 59 23 66 75 3 22 8 40 12 40 3 0 95 -14 204 -31 213 -35
201 -35 374 8 68 16 141 70 169 124 13 26 19 29 67 29 28 1 84 7 122 15 68 13
71 13 110 -10 86 -50 93 -85 26 -123 -84 -47 -181 -64 -411 -72 -200 -6 -199
-8 2 -16 42 -1 87 -8 99 -14 37 -20 179 5 179 31 0 5 19 13 42 20 61 16 136
56 148 78 5 11 10 62 10 113 0 132 -13 152 -146 235 -15 9 80 11 409 9 l427
-3 0 69 0 69 -482 -1 -482 -1 -24 48 c-58 114 -164 221 -267 269 -41 20 -65
24 -135 23 -47 -1 -104 -5 -128 -10z m276 -37 c65 -32 175 -139 219 -213 53
-89 53 -89 -8 -82 -46 5 -52 4 -46 -10 4 -10 2 -17 -3 -17 -27 0 -63 28 -87
69 -73 125 -135 185 -242 235 -31 14 -48 27 -41 31 51 32 129 27 208 -13z
m-248 1 c-17 -14 -45 -50 -61 -79 l-30 -52 -74 -7 c-40 -4 -79 -5 -86 -3 -7 2
10 28 42 62 45 48 65 62 124 82 39 13 80 24 93 24 22 0 22 -1 -8 -27z m93 -39
c86 -44 163 -124 231 -242 4 -7 -21 3 -57 23 -36 20 -101 44 -148 54 -65 15
-165 49 -197 67 -5 3 48 86 70 111 22 23 32 22 101 -13z m-109 -173 c34 -32
66 -136 66 -216 0 -82 -45 -175 -108 -222 -52 -39 -79 -45 -60 -12 11 17 10
22 -6 35 -27 19 -46 18 -283 -16 -241 -35 -291 -46 -316 -67 -16 -15 -16 -17
-1 -35 14 -15 15 -18 2 -18 -18 0 -50 34 -74 80 -28 53 -26 218 3 282 33 71
91 122 171 147 121 39 334 70 464 68 108 -2 118 -4 142 -26z m106 -15 c30 -16
56 -29 58 -31 1 -1 -2 -15 -8 -30 -14 -37 3 -96 40 -138 18 -21 56 -44 99 -62
39 -15 71 -33 71 -40 0 -6 -7 -34 -15 -62 -11 -37 -28 -62 -65 -97 -110 -103
-241 -130 -540 -111 -149 9 -186 1 -175 -35 10 -33 -38 -36 -143 -9 -113 29
-127 24 213 70 213 29 247 36 300 64 104 53 165 161 165 289 0 71 -23 158 -53
200 -23 32 -24 32 53 -8z m223 -76 l102 -40 -3 -43 -4 -44 99 4 98 5 80 -54
c91 -60 103 -83 104 -197 l1 -65 -27 27 c-27 25 -175 99 -423 211 -73 33 -136
69 -152 86 -49 53 -47 150 3 150 11 0 66 -18 122 -40z m181 -45 c4 11 15 15
33 13 23 -2 28 -8 28 -30 1 -27 -14 -41 -16 -15 0 10 -2 10 -6 0 -8 -21 -23
-15 -24 10 0 21 -1 21 -10 -3 -10 -24 -11 -24 -25 -6 -8 11 -14 27 -14 35 1
13 3 13 14 -2 12 -16 14 -16 20 -2z m123 3 c7 18 23 15 24 -5 0 -11 3 -13 6
-5 9 22 33 13 33 -13 0 -21 -4 -24 -27 -23 -16 1 -31 7 -35 13 -5 6 -11 5 -18
-5 -7 -11 -10 -6 -10 20 0 27 3 32 11 20 8 -11 12 -12 16 -2z m155 -17 c-4
-26 -8 -29 -43 -29 -35 -1 -39 2 -39 25 0 21 4 24 23 20 12 -4 29 -2 37 3 23
15 27 12 22 -19z m116 -6 c0 -14 -4 -25 -8 -25 -9 0 -19 47 -12 54 10 10 20
-4 20 -29z m245 13 c8 -28 1 -37 -22 -31 -17 4 -18 9 -9 29 14 30 24 31 31 2z
m55 -5 c-2 -17 -10 -29 -20 -31 -14 -3 -18 3 -18 27 0 25 4 31 21 31 16 0 20
-5 17 -27z m39 20 c-17 -4 -17 -5 -1 -17 19 -14 12 -36 -12 -36 -9 0 -14 11
-14 30 0 25 4 30 23 29 18 -1 18 -2 4 -6z m50 -1 c-15 -6 -13 -10 13 -25 30
-18 41 -12 18 11 -6 6 -9 15 -5 18 10 10 39 -5 32 -16 -3 -5 -1 -10 4 -10 6 0
11 7 11 16 0 10 7 14 18 12 9 -2 16 -10 15 -16 -4 -18 8 -15 23 5 15 21 21 17
26 -16 3 -24 2 -24 -89 -26 l-93 -3 0 29 c0 24 4 29 23 28 18 0 19 -1 4 -7z
m-467 -19 c0 -15 1 -15 13 2 16 21 37 13 37 -14 0 -15 -8 -18 -40 -18 -31 0
-40 4 -40 17 0 9 3 20 7 23 12 12 23 7 23 -10z m210 4 c0 -7 4 -6 9 2 13 20
41 5 40 -21 -1 -17 -2 -18 -6 -5 -2 9 -9 17 -14 17 -5 0 -9 -8 -9 -17 0 -15
-2 -16 -10 -3 -5 8 -10 10 -10 4 0 -6 -17 -11 -40 -11 -31 0 -40 4 -40 17 0
23 4 26 45 27 20 1 35 -4 35 -10z m-432 -292 c-3 -17 -13 -21 -77 -28 -40 -4
-75 -6 -77 -4 -2 2 1 29 7 59 l11 55 70 -30 c56 -25 68 -35 66 -52z m-188 32
c0 -19 -13 -55 -32 -87 -26 -43 -45 -60 -89 -83 -31 -16 -76 -31 -100 -33
l-44 -5 55 30 c80 43 133 92 166 155 16 31 32 56 37 56 4 0 7 -15 7 -33z
m-520 -26 c0 -11 -12 -13 -309 -56 -237 -34 -311 -41 -298 -29 4 5 176 31 600
93 4 1 7 -3 7 -8z m705 -240 c-14 -14 -116 -28 -145 -20 -21 6 -19 7 15 9 22
0 58 5 80 9 57 12 60 12 50 2z"/>
</g>
</svg>
